<svg version="1.1" id="Layer_1" xmlns="http://www.w3.org/2000/svg" xmlns:xlink="http://www.w3.org/1999/xlink" x="0px" y="0px"
	 width="100%" viewBox="0 0 1920 1152" enable-background="new 0 0 1920 1152" xml:space="preserve">
<path fill="#FFFFFF" opacity="1.000000" stroke="none" 
	d="
M1276.000000,1153.000000 
	C850.666748,1153.000000 425.833496,1153.000000 1.000171,1153.000000 
	C1.000114,769.000122 1.000114,385.000275 1.000057,1.000326 
	C640.999756,1.000217 1280.999512,1.000217 1920.999512,1.000108 
	C1920.999634,384.999664 1920.999634,768.999329 1920.999756,1152.999512 
	C1706.166626,1153.000000 1491.333374,1153.000000 1276.000000,1153.000000 
M1165.260864,512.079102 
	C1165.203735,504.054749 1165.146729,496.030396 1165.260498,487.080383 
	C1165.205688,480.055267 1165.151001,473.030121 1165.273560,465.081146 
	C1165.215332,459.055084 1165.157104,453.029053 1165.281128,446.081665 
	C1165.219727,440.723083 1165.158325,435.364471 1165.282959,429.082581 
	C1165.282959,404.857025 1165.282959,380.631439 1165.282959,355.681976 
	C1124.093994,355.586853 1091.392090,371.504242 1066.070923,404.190552 
	C1056.800293,416.852173 1049.687378,430.532745 1045.992554,446.757538 
	C1045.296387,450.486053 1044.600220,454.214539 1043.538330,458.332275 
	C1043.521484,458.840668 1043.504761,459.349060 1043.241943,460.665253 
	C1043.149902,461.785126 1043.057983,462.905029 1042.672607,464.223083 
	C1042.628784,464.332733 1042.525635,464.461090 1042.553101,464.548340 
	C1042.620117,464.761230 1042.747559,464.955078 1042.725220,465.977203 
	C1042.608765,472.978973 1042.492310,479.980774 1042.183960,487.904785 
	C1042.246582,501.935150 1042.309204,515.965515 1042.180786,530.914673 
	C1042.249756,548.600769 1042.318726,566.286926 1042.191040,584.893433 
	C1041.121338,599.928284 1040.051636,614.963196 1038.663818,630.681213 
	C1037.590088,634.665588 1036.935425,638.824097 1035.365601,642.602356 
	C1030.307739,654.776794 1024.912598,666.811157 1019.142700,679.319153 
	C1006.333862,700.380615 989.907776,718.200439 969.059631,731.253784 
	C955.335632,739.846619 940.419189,746.534790 925.362854,754.056946 
	C924.601318,754.716064 923.839783,755.375183 922.483215,756.113953 
	C921.992920,756.449646 921.502625,756.785400 920.167175,756.943054 
	C916.934448,757.587585 913.645996,758.031006 910.478088,758.909302 
	C890.394531,764.477051 869.996643,767.880798 849.115723,767.956360 
	C845.373352,767.969910 841.629456,767.544739 836.740845,767.253967 
	C838.893005,768.582458 839.987976,769.284241 841.107056,769.945251 
	C864.059937,783.503296 888.912598,791.502075 915.190735,795.438416 
	C954.799377,801.371704 994.123291,800.367859 1032.878906,789.863953 
	C1078.852051,777.403992 1115.377075,752.029785 1139.171143,709.948303 
	C1156.172607,679.880066 1163.356201,647.179199 1164.966187,612.057739 
	C1165.004028,598.039612 1165.041748,584.021545 1165.217041,569.073914 
	C1165.170532,560.049866 1165.124146,551.025818 1165.232056,541.074524 
	C1165.186890,531.718323 1165.141724,522.362061 1165.260864,512.079102 
M877.355225,466.042908 
	C877.274780,465.444305 877.194336,464.845673 877.320129,463.962494 
	C877.206543,463.660309 877.092957,463.358124 877.052063,462.250336 
	C876.656006,460.157776 876.260010,458.065216 875.990051,455.152802 
	C873.091125,446.401154 870.192200,437.649475 867.216919,428.123169 
	C866.796692,426.723053 866.663330,425.141113 865.909729,423.952332 
	C861.029236,416.253510 856.013550,408.640350 851.036560,400.303467 
	C829.411804,373.975006 801.578918,359.255157 767.709045,355.542419 
	C767.709045,355.542419 767.412781,355.488312 767.412781,355.488312 
	C767.412781,355.488312 767.280090,355.745453 766.454407,355.767395 
	C763.382935,355.607117 760.311462,355.446869 756.707886,355.258850 
	C756.707886,358.837982 756.702148,361.623413 756.708740,364.408844 
	C756.771851,390.935608 756.837036,417.462402 756.729492,444.915344 
	C756.786072,463.941620 756.842651,482.967865 756.721069,502.918701 
	C756.785950,520.276733 756.850830,537.634705 756.727356,555.915894 
	C756.785217,572.282715 756.843140,588.649475 756.760559,605.771545 
	C756.778137,606.283203 756.795715,606.794922 756.500183,607.493469 
	C756.631470,607.891602 756.762695,608.289673 756.950867,609.659241 
	C757.647827,618.491211 757.843506,627.399353 759.171448,636.135437 
	C760.753357,646.542786 763.306702,656.802490 765.367920,667.620911 
	C765.589172,668.055725 765.810425,668.490540 766.002075,668.967590 
	C766.002075,668.967590 766.050354,668.985535 766.082703,669.735901 
	C769.882019,681.792053 776.162292,692.458862 784.853760,701.554443 
	C796.191284,713.419006 809.684448,721.762268 826.537354,725.366333 
	C827.354919,725.501587 828.172424,725.636841 829.583496,726.053345 
	C830.012451,726.139954 830.441345,726.226501 831.395569,726.860596 
	C834.261292,726.944824 837.148865,726.833557 839.988525,727.151062 
	C847.606201,728.002625 855.218506,729.921265 862.805115,729.791321 
	C873.963928,729.600220 885.164368,728.464966 896.229675,726.901428 
	C919.147827,723.662903 940.828796,716.396729 961.133667,705.214111 
	C965.785950,702.652039 970.267883,699.780579 974.828247,697.051514 
	C972.181580,696.142151 969.992249,695.841309 967.912903,696.192078 
	C956.287170,698.153259 945.005981,696.290161 933.829712,693.307739 
	C911.834106,687.438354 896.897461,673.479309 888.256348,652.707520 
	C880.978271,635.212219 878.068298,616.804321 878.036255,597.305847 
	C877.949280,596.895142 877.862305,596.484375 877.902222,595.135010 
	C877.831543,585.763062 877.760864,576.391052 877.889282,566.098022 
	C877.825317,551.069946 877.761292,536.041870 877.891663,520.097107 
	C877.840881,515.382019 877.790039,510.666931 877.885132,505.499695 
	C877.885132,505.499695 877.735840,505.048676 877.882019,504.119263 
	C877.819031,499.083069 877.756104,494.046875 877.881897,488.093353 
	C877.829590,483.374420 877.777283,478.655487 877.915527,473.229401 
	C877.858704,472.504791 877.801819,471.780151 877.869690,470.233887 
	C877.686096,469.435120 877.502502,468.636353 877.513184,467.429718 
	C877.533508,467.099548 877.414490,466.830994 877.355225,466.042908 
z"/>
<path fill="#BD52FD" opacity="1.000000" stroke="none" 
	d="
M1164.823608,612.983459 
	C1163.356201,647.179199 1156.172607,679.880066 1139.171143,709.948303 
	C1115.377075,752.029785 1078.852051,777.403992 1032.878906,789.863953 
	C994.123291,800.367859 954.799377,801.371704 915.190735,795.438416 
	C888.912598,791.502075 864.059937,783.503296 841.107056,769.945251 
	C839.987976,769.284241 838.893005,768.582458 836.740845,767.253967 
	C841.629456,767.544739 845.373352,767.969910 849.115723,767.956360 
	C869.996643,767.880798 890.394531,764.477051 910.478088,758.909302 
	C913.645996,758.031006 916.934448,757.587585 920.619385,757.357300 
	C921.000854,761.115417 921.753113,763.613220 925.977417,763.206665 
	C926.832764,763.124207 927.865845,763.845459 928.665710,764.410400 
	C932.125061,766.854370 935.276794,769.887634 939.020020,771.734436 
	C943.045959,773.720642 947.545532,775.523132 951.947327,775.826904 
	C965.443420,776.758301 977.715576,771.536011 990.155396,767.184265 
	C1005.717407,761.740234 1019.836426,753.500488 1032.622925,743.482056 
	C1045.380371,733.486511 1056.648315,721.649048 1066.077271,708.286560 
	C1066.692627,707.414490 1066.729980,706.134521 1067.373047,704.975220 
	C1078.455200,690.477661 1084.932495,674.068970 1089.969360,656.579224 
	C1091.998169,646.786987 1094.001953,637.395935 1096.370361,627.961975 
	C1105.610840,625.612427 1114.438721,623.093079 1123.378784,621.069031 
	C1130.104980,619.546082 1136.996704,618.770203 1143.775269,617.457520 
	C1150.816162,616.094116 1157.809448,614.485046 1164.823608,612.983459 
z"/>
<path fill="#0266EA" opacity="1.000000" stroke="none" 
	d="
M877.690186,567.019104 
	C877.760864,576.391052 877.831543,585.763062 877.650146,595.748047 
	C877.559265,596.881592 877.720398,597.402161 877.881592,597.922668 
	C878.068298,616.804321 880.978271,635.212219 888.256348,652.707520 
	C896.897461,673.479309 911.834106,687.438354 933.829712,693.307739 
	C945.005981,696.290161 956.287170,698.153259 967.912903,696.192078 
	C969.992249,695.841309 972.181580,696.142151 974.828247,697.051514 
	C970.267883,699.780579 965.785950,702.652039 961.133667,705.214111 
	C940.828796,716.396729 919.147827,723.662903 896.229675,726.901428 
	C885.164368,728.464966 873.963928,729.600220 862.805115,729.791321 
	C855.218506,729.921265 847.606201,728.002625 839.988525,727.151062 
	C837.148865,726.833557 834.261292,726.944824 831.145752,726.277283 
	C830.574829,725.261047 830.253784,724.828125 829.932739,724.395203 
	C829.618469,724.854126 829.304199,725.313110 828.989990,725.772095 
	C828.172424,725.636841 827.354919,725.501587 826.302856,724.846436 
	C828.311218,722.282776 830.322571,719.863220 832.861084,718.299194 
	C835.489990,716.679504 838.823364,716.222961 841.506592,714.667664 
	C847.209045,711.362061 852.762024,707.780945 858.227295,704.092041 
	C860.584717,702.500977 860.691956,700.172607 858.578735,698.149780 
	C857.029480,696.666809 855.154541,695.526184 853.589478,694.057434 
	C840.576477,681.844788 832.172729,666.942871 827.735779,649.709290 
	C826.635132,645.434204 825.242310,641.234436 823.984619,636.586060 
	C819.679443,616.692749 819.346130,596.814148 818.463623,577.022461 
	C827.151306,575.548218 835.411499,574.051880 843.684326,572.628906 
	C855.006653,570.681519 865.951721,566.441467 877.690186,567.019104 
z"/>
<path fill="#A64FFC" opacity="1.000000" stroke="none" 
	d="
M1067.036133,705.044250 
	C1066.729980,706.134521 1066.692627,707.414490 1066.077271,708.286560 
	C1056.648315,721.649048 1045.380371,733.486511 1032.622925,743.482056 
	C1019.836426,753.500488 1005.717407,761.740234 990.155396,767.184265 
	C977.715576,771.536011 965.443420,776.758301 951.947327,775.826904 
	C947.545532,775.523132 943.045959,773.720642 939.020020,771.734436 
	C935.276794,769.887634 932.125061,766.854370 928.665710,764.410400 
	C927.865845,763.845459 926.832764,763.124207 925.977417,763.206665 
	C921.753113,763.613220 921.000854,761.115417 921.041992,757.446350 
	C921.502625,756.785400 921.992920,756.449646 923.103943,756.072388 
	C924.495361,755.379211 925.265991,754.727478 926.036682,754.075806 
	C940.419189,746.534790 955.335632,739.846619 969.059631,731.253784 
	C989.907776,718.200439 1006.333862,700.380615 1019.810791,679.139832 
	C1021.538696,679.262634 1022.993896,679.224304 1023.594482,679.921753 
	C1027.684937,684.672913 1032.566895,687.770264 1038.557739,690.008301 
	C1043.970947,692.030396 1048.669800,695.983643 1053.649536,699.138977 
	C1056.681396,701.059998 1059.648682,703.083008 1063.457520,705.596436 
	C1063.821655,705.540283 1065.428833,705.292236 1067.036133,705.044250 
z"/>
<path fill="#4F43F3" opacity="1.000000" stroke="none" 
	d="
M1066.615234,403.839874 
	C1091.392090,371.504242 1124.093994,355.586853 1165.282959,355.681976 
	C1165.282959,380.631439 1165.282959,404.857025 1164.760620,429.533722 
	C1161.457642,429.656586 1158.584961,428.710297 1155.912720,429.108582 
	C1145.223511,430.701782 1134.595703,432.707642 1123.949463,434.584900 
	C1123.474609,434.668640 1123.061035,435.073608 1122.585327,435.182465 
	C1118.602051,436.093903 1114.638428,437.179077 1110.602783,437.709778 
	C1109.615479,437.839630 1107.401733,436.082458 1107.433350,435.257538 
	C1107.586670,431.268982 1105.298340,429.277313 1102.245117,427.716431 
	C1099.742798,426.437164 1096.380493,425.914185 1094.802246,423.936432 
	C1090.919800,419.071167 1084.680542,419.246399 1080.124023,415.975800 
	C1075.153809,412.408203 1066.941284,412.568176 1066.615234,403.839874 
z"/>
<path fill="#1CA3F3" opacity="1.000000" stroke="none" 
	d="
M756.899231,501.994141 
	C756.842651,482.967865 756.786072,463.941620 757.207703,444.455109 
	C760.656128,442.392181 763.578857,440.693054 766.604736,439.203583 
	C779.446777,432.882172 792.194702,426.448334 803.984985,418.197784 
	C806.922546,416.142212 809.292480,414.372955 809.592041,410.724640 
	C809.920105,406.728729 812.790222,405.665894 816.012573,405.045105 
	C817.788391,404.703003 819.607849,404.592560 821.403015,404.344269 
	C831.254883,402.981628 840.637146,397.464081 851.042175,400.999084 
	C856.013550,408.640350 861.029236,416.253510 865.909729,423.952332 
	C866.663330,425.141113 866.796692,426.723053 866.795288,428.539520 
	C865.042969,428.977051 863.676086,428.805756 862.387329,429.048950 
	C848.314148,431.704254 834.241882,434.368530 820.209534,437.227631 
	C819.024536,437.469055 817.500061,438.985870 817.223022,440.166016 
	C816.514648,443.183807 816.123901,446.348724 816.151550,449.449951 
	C816.194092,454.234680 816.894104,459.013580 816.936829,463.798309 
	C816.976257,468.216339 812.570679,474.066833 809.331665,475.012238 
	C806.854248,475.735382 804.403687,476.736389 802.146606,477.985107 
	C798.835938,479.816620 795.739746,482.031281 792.496765,483.990875 
	C786.056824,487.882172 779.206116,491.216003 773.231628,495.717804 
	C768.211182,499.500641 763.049500,501.729065 756.899231,501.994141 
z"/>
<path fill="#1799F2" opacity="1.000000" stroke="none" 
	d="
M756.810181,502.456421 
	C763.049500,501.729065 768.211182,499.500641 773.231628,495.717804 
	C779.206116,491.216003 786.056824,487.882172 792.496765,483.990875 
	C795.739746,482.031281 798.835938,479.816620 802.146606,477.985107 
	C804.403687,476.736389 806.854248,475.735382 809.331665,475.012238 
	C812.570679,474.066833 816.976257,468.216339 816.936829,463.798309 
	C816.894104,459.013580 816.194092,454.234680 816.151550,449.449951 
	C816.123901,446.348724 816.514648,443.183807 817.223022,440.166016 
	C817.500061,438.985870 819.024536,437.469055 820.209534,437.227631 
	C834.241882,434.368530 848.314148,431.704254 862.387329,429.048950 
	C863.676086,428.805756 865.042969,428.977051 866.833496,428.926849 
	C870.192200,437.649475 873.091125,446.401154 875.663818,455.346558 
	C874.707703,455.073975 873.980164,454.113678 873.462585,454.215973 
	C866.587708,455.574646 859.729126,457.024017 852.892822,458.567322 
	C843.733215,460.635132 834.623352,462.930725 825.440308,464.884918 
	C819.480164,466.153320 818.026184,467.576935 818.009216,473.641541 
	C817.983643,482.762177 818.003418,491.882935 818.003418,501.471985 
	C818.000793,508.626038 817.998596,515.311768 817.629883,522.002258 
	C816.485657,522.234619 815.362061,522.209534 814.983093,522.728455 
	C810.573303,528.766846 804.074463,531.542603 797.519226,534.346680 
	C795.746765,535.104797 794.381287,536.760925 792.689880,537.772217 
	C787.533508,540.855225 782.306396,543.819946 777.112427,546.840454 
	C774.323425,548.462402 771.067322,549.629700 768.871826,551.844666 
	C765.316162,555.431824 761.708862,556.978882 756.915649,554.992737 
	C756.850830,537.634705 756.785950,520.276733 756.810181,502.456421 
z"/>
<path fill="#22B1F5" opacity="1.000000" stroke="none" 
	d="
M851.039368,400.651306 
	C840.637146,397.464081 831.254883,402.981628 821.403015,404.344269 
	C819.607849,404.592560 817.788391,404.703003 816.012573,405.045105 
	C812.790222,405.665894 809.920105,406.728729 809.592041,410.724640 
	C809.292480,414.372955 806.922546,416.142212 803.984985,418.197784 
	C792.194702,426.448334 779.446777,432.882172 766.604736,439.203583 
	C763.578857,440.693054 760.656128,442.392181 757.293823,443.992004 
	C756.837036,417.462402 756.771851,390.935608 756.708740,364.408844 
	C756.702148,361.623413 756.707886,358.837982 756.707886,355.258850 
	C760.311462,355.446869 763.382935,355.607117 766.979248,355.816650 
	C767.504089,355.865936 767.743530,355.759369 767.743530,355.759369 
	C801.578918,359.255157 829.411804,373.975006 851.039368,400.651306 
z"/>
<path fill="#0876ED" opacity="1.000000" stroke="none" 
	d="
M823.983826,637.000000 
	C825.242310,641.234436 826.635132,645.434204 827.735779,649.709290 
	C832.172729,666.942871 840.576477,681.844788 853.589478,694.057434 
	C855.154541,695.526184 857.029480,696.666809 858.578735,698.149780 
	C860.691956,700.172607 860.584717,702.500977 858.227295,704.092041 
	C852.762024,707.780945 847.209045,711.362061 841.506592,714.667664 
	C838.823364,716.222961 835.489990,716.679504 832.861084,718.299194 
	C830.322571,719.863220 828.311218,722.282776 826.031494,724.684204 
	C809.684448,721.762268 796.191284,713.419006 784.853760,701.554443 
	C776.162292,692.458862 769.882019,681.792053 766.495911,669.366455 
	C769.490356,668.562622 772.266296,668.591064 774.614746,667.603271 
	C780.663879,665.058899 786.548706,662.115662 792.450012,659.231201 
	C796.059021,657.467163 801.111877,657.587219 801.884949,651.914246 
	C801.988953,651.151489 803.987854,650.661804 805.092529,650.017029 
	C806.712952,649.071167 808.359253,648.160828 809.917542,647.120056 
	C811.260925,646.222900 812.486816,645.151428 813.782104,644.180359 
	C815.823364,642.650269 817.857910,641.109741 819.936523,639.631531 
	C821.246704,638.699646 822.632141,637.873535 823.983826,637.000000 
z"/>
<path fill="#0E84EF" opacity="1.000000" stroke="none" 
	d="
M823.984619,636.586060 
	C822.632141,637.873535 821.246704,638.699646 819.936523,639.631531 
	C817.857910,641.109741 815.823364,642.650269 813.782104,644.180359 
	C812.486816,645.151428 811.260925,646.222900 809.917542,647.120056 
	C808.359253,648.160828 806.712952,649.071167 805.092529,650.017029 
	C803.987854,650.661804 801.988953,651.151489 801.884949,651.914246 
	C801.111877,657.587219 796.059021,657.467163 792.450012,659.231201 
	C786.548706,662.115662 780.663879,665.058899 774.614746,667.603271 
	C772.266296,668.591064 769.490356,668.562622 766.479736,668.991333 
	C766.050354,668.985535 766.002075,668.967590 765.986694,668.705566 
	C765.793945,668.004395 765.616577,667.565247 765.439148,667.126160 
	C763.306702,656.802490 760.753357,646.542786 759.171448,636.135437 
	C757.843506,627.399353 757.647827,618.491211 757.001831,608.945923 
	C757.102539,607.890503 757.022705,607.581787 756.813232,607.306580 
	C756.795715,606.794922 756.778137,606.283203 757.173584,605.259033 
	C765.039185,606.549988 770.231079,601.543640 775.949646,598.429138 
	C781.092407,595.628174 785.864807,592.154236 790.865784,589.083435 
	C794.524170,586.837097 798.088440,584.229858 802.054199,582.742188 
	C807.475037,580.708740 811.114380,574.453735 818.003357,576.256592 
	C818.021667,576.688110 818.031677,576.860596 818.041748,577.033081 
	C819.346130,596.814148 819.679443,616.692749 823.984619,636.586060 
z"/>
<path fill="#6345F5" opacity="1.000000" stroke="none" 
	d="
M1042.375854,486.982544 
	C1042.492310,479.980774 1042.608765,472.978973 1042.849365,465.287415 
	C1042.970947,464.406738 1042.968506,464.215820 1042.965942,464.024902 
	C1043.057983,462.905029 1043.149902,461.785126 1043.526855,460.063232 
	C1043.842407,458.955139 1043.873169,458.449066 1043.904053,457.943024 
	C1044.600220,454.214539 1045.296387,450.486053 1046.541626,446.304688 
	C1050.001465,445.767426 1055.059937,444.791229 1055.458008,445.750092 
	C1057.367920,450.349670 1061.916748,450.297058 1064.978149,452.622498 
	C1068.206055,455.074402 1073.092407,455.078705 1074.872192,459.964386 
	C1075.377808,461.352417 1078.912842,461.518860 1080.939453,462.493439 
	C1086.527832,465.181152 1092.053101,467.999969 1097.431641,470.681396 
	C1102.724731,463.150269 1102.724854,463.150604 1111.463013,459.234406 
	C1111.766724,459.098328 1112.048828,458.901703 1112.362793,458.802979 
	C1116.404663,457.532104 1120.380371,455.939972 1124.508057,455.073700 
	C1138.008301,452.240479 1151.564209,449.672791 1165.098755,447.002991 
	C1165.157104,453.029053 1165.215332,459.055084 1164.781616,465.547363 
	C1158.326538,467.132385 1152.330933,468.104095 1146.408081,469.406158 
	C1138.422974,471.161530 1130.514526,473.265839 1122.532837,475.038361 
	C1117.235962,476.214630 1111.696777,476.564972 1106.604126,478.285675 
	C1104.045044,479.150360 1100.995972,481.920593 1100.345581,484.400146 
	C1098.854858,490.082397 1098.701294,496.115356 1098.004761,502.405396 
	C1098.004639,503.870178 1098.004761,504.935516 1097.694214,506.158813 
	C1093.394897,511.815857 1093.476318,511.670563 1087.449463,508.293060 
	C1078.827637,503.461456 1070.075562,498.862274 1061.372803,494.175720 
	C1058.770508,492.774445 1055.917480,491.717407 1053.587646,489.960938 
	C1050.162231,487.378601 1046.808350,485.390045 1042.375854,486.982544 
z"/>
<path fill="#5A45F5" opacity="1.000000" stroke="none" 
	d="
M1165.189941,446.542297 
	C1151.564209,449.672791 1138.008301,452.240479 1124.508057,455.073700 
	C1120.380371,455.939972 1116.404663,457.532104 1112.362793,458.802979 
	C1112.048828,458.901703 1111.766724,459.098328 1111.463013,459.234406 
	C1102.724854,463.150604 1102.724731,463.150269 1097.431641,470.681396 
	C1092.053101,467.999969 1086.527832,465.181152 1080.939453,462.493439 
	C1078.912842,461.518860 1075.377808,461.352417 1074.872192,459.964386 
	C1073.092407,455.078705 1068.206055,455.074402 1064.978149,452.622498 
	C1061.916748,450.297058 1057.367920,450.349670 1055.458008,445.750092 
	C1055.059937,444.791229 1050.001465,445.767426 1046.712158,445.920166 
	C1049.687378,430.532745 1056.800293,416.852173 1066.343018,404.015198 
	C1066.941284,412.568176 1075.153809,412.408203 1080.124023,415.975800 
	C1084.680542,419.246399 1090.919800,419.071167 1094.802246,423.936432 
	C1096.380493,425.914185 1099.742798,426.437164 1102.245117,427.716431 
	C1105.298340,429.277313 1107.586670,431.268982 1107.433350,435.257538 
	C1107.401733,436.082458 1109.615479,437.839630 1110.602783,437.709778 
	C1114.638428,437.179077 1118.602051,436.093903 1122.585327,435.182465 
	C1123.061035,435.073608 1123.474609,434.668640 1123.949463,434.584900 
	C1134.595703,432.707642 1145.223511,430.701782 1155.912720,429.108582 
	C1158.584961,428.710297 1161.457642,429.656586 1164.667480,429.995361 
	C1165.158325,435.364471 1165.219727,440.723083 1165.189941,446.542297 
z"/>
<path fill="#138FF1" opacity="1.000000" stroke="none" 
	d="
M817.995117,575.997559 
	C811.114380,574.453735 807.475037,580.708740 802.054199,582.742188 
	C798.088440,584.229858 794.524170,586.837097 790.865784,589.083435 
	C785.864807,592.154236 781.092407,595.628174 775.949646,598.429138 
	C770.231079,601.543640 765.039185,606.549988 757.243835,604.881470 
	C756.843140,588.649475 756.785217,572.282715 756.821533,555.454346 
	C761.708862,556.978882 765.316162,555.431824 768.871826,551.844666 
	C771.067322,549.629700 774.323425,548.462402 777.112427,546.840454 
	C782.306396,543.819946 787.533508,540.855225 792.689880,537.772217 
	C794.381287,536.760925 795.746765,535.104797 797.519226,534.346680 
	C804.074463,531.542603 810.573303,528.766846 814.983093,522.728455 
	C815.362061,522.209534 816.485657,522.234619 817.631958,522.465759 
	C818.004517,526.953552 818.008362,530.982605 818.010681,535.479492 
	C818.004456,549.297485 817.999756,562.647522 817.995117,575.997559 
z"/>
<path fill="#904CFA" opacity="1.000000" stroke="none" 
	d="
M1067.372925,704.975220 
	C1065.428833,705.292236 1063.821655,705.540283 1063.457520,705.596436 
	C1059.648682,703.083008 1056.681396,701.059998 1053.649536,699.138977 
	C1048.669800,695.983643 1043.970947,692.030396 1038.557739,690.008301 
	C1032.566895,687.770264 1027.684937,684.672913 1023.594482,679.921753 
	C1022.993896,679.224304 1021.538696,679.262634 1020.063232,678.930054 
	C1024.912598,666.811157 1030.307739,654.776794 1035.365601,642.602356 
	C1036.935425,638.824097 1037.590088,634.665588 1039.213989,630.341003 
	C1041.847900,630.838989 1044.057861,631.454834 1045.993042,632.554443 
	C1053.854126,637.020935 1061.591675,641.705078 1069.464478,646.149841 
	C1071.575806,647.341736 1074.133911,647.736267 1076.261353,648.906677 
	C1080.899292,651.458130 1085.392212,654.273132 1089.944458,656.980469 
	C1084.932495,674.068970 1078.455200,690.477661 1067.372925,704.975220 
z"/>
<path fill="#A64FFC" opacity="1.000000" stroke="none" 
	d="
M1164.894897,612.520630 
	C1157.809448,614.485046 1150.816162,616.094116 1143.775269,617.457520 
	C1136.996704,618.770203 1130.104980,619.546082 1123.378784,621.069031 
	C1114.438721,623.093079 1105.610840,625.612427 1096.362427,627.507385 
	C1096.314819,620.726196 1096.639648,614.356628 1096.972656,607.519348 
	C1097.009277,598.716675 1097.037842,590.381775 1097.471924,582.032410 
	C1103.691040,581.381409 1109.553833,581.028687 1115.304199,580.028809 
	C1121.124512,579.016724 1126.796753,577.179321 1132.598999,576.032166 
	C1143.400879,573.896667 1154.250122,571.999695 1165.079590,570.003418 
	C1165.041748,584.021545 1165.004028,598.039612 1164.894897,612.520630 
z"/>
<path fill="#7848F7" opacity="1.000000" stroke="none" 
	d="
M1097.066284,582.046875 
	C1097.037842,590.381775 1097.009277,598.716675 1096.594482,607.518188 
	C1092.080933,606.402649 1087.714478,605.256470 1083.874878,603.149902 
	C1075.265991,598.426575 1066.911621,593.238037 1058.468628,588.213867 
	C1054.457397,585.826904 1050.480347,583.382202 1046.770386,581.134766 
	C1045.490112,581.963867 1043.938843,582.968445 1042.387695,583.973022 
	C1042.318726,566.286926 1042.249756,548.600769 1042.655762,530.454346 
	C1044.427612,530.175354 1045.903320,530.017395 1046.993042,530.591797 
	C1055.682251,535.171814 1064.314697,539.860657 1072.928223,544.582397 
	C1076.175415,546.362488 1079.548706,548.026855 1082.469971,550.260132 
	C1086.861328,553.617249 1091.047852,557.125549 1097.003418,557.468628 
	C1097.026611,565.973816 1097.046387,574.010315 1097.066284,582.046875 
z"/>
<path fill="#834AF8" opacity="1.000000" stroke="none" 
	d="
M1042.289307,584.433228 
	C1043.938843,582.968445 1045.490112,581.963867 1046.770386,581.134766 
	C1050.480347,583.382202 1054.457397,585.826904 1058.468628,588.213867 
	C1066.911621,593.238037 1075.265991,598.426575 1083.874878,603.149902 
	C1087.714478,605.256470 1092.080933,606.402649 1096.586426,607.985962 
	C1096.639648,614.356628 1096.314819,620.726196 1095.997803,627.550293 
	C1094.001953,637.395935 1091.998169,646.786987 1089.969360,656.579224 
	C1085.392212,654.273132 1080.899292,651.458130 1076.261353,648.906677 
	C1074.133911,647.736267 1071.575806,647.341736 1069.464478,646.149841 
	C1061.591675,641.705078 1053.854126,637.020935 1045.993042,632.554443 
	C1044.057861,631.454834 1041.847900,630.838989 1039.373047,629.999390 
	C1040.051636,614.963196 1041.121338,599.928284 1042.289307,584.433228 
z"/>
<path fill="#0876ED" opacity="1.000000" stroke="none" 
	d="
M818.003296,576.256592 
	C817.999756,562.647522 818.004456,549.297485 818.368042,535.436829 
	C823.019775,531.754944 828.046021,531.524414 833.111694,530.604004 
	C848.060913,527.888000 862.847229,524.275452 877.697327,521.013794 
	C877.761292,536.041870 877.825317,551.069946 877.789734,566.558594 
	C865.951721,566.441467 855.006653,570.681519 843.684326,572.628906 
	C835.411499,574.051880 827.151306,575.548218 818.463623,577.022461 
	C818.031677,576.860596 818.021667,576.688110 818.003296,576.256592 
z"/>
<path fill="#6D47F6" opacity="1.000000" stroke="none" 
	d="
M1097.000000,557.000000 
	C1091.047852,557.125549 1086.861328,553.617249 1082.469971,550.260132 
	C1079.548706,548.026855 1076.175415,546.362488 1072.928223,544.582397 
	C1064.314697,539.860657 1055.682251,535.171814 1046.993042,530.591797 
	C1045.903320,530.017395 1044.427612,530.175354 1042.751221,529.994934 
	C1042.309204,515.965515 1042.246582,501.935150 1042.279907,487.443665 
	C1046.808350,485.390045 1050.162231,487.378601 1053.587646,489.960938 
	C1055.917480,491.717407 1058.770508,492.774445 1061.372803,494.175720 
	C1070.075562,498.862274 1078.827637,503.461456 1087.449463,508.293060 
	C1093.476318,511.670563 1093.394897,511.815857 1097.979736,506.424561 
	C1098.384033,513.689026 1098.192017,520.845703 1098.000000,528.456421 
	C1097.671509,537.609680 1097.343140,546.308960 1097.011963,555.340149 
	C1097.006104,556.114746 1097.003052,556.557373 1097.000000,557.000000 
z"/>
<path fill="#904CFA" opacity="1.000000" stroke="none" 
	d="
M1097.003418,557.468628 
	C1097.003052,556.557373 1097.006104,556.114746 1097.370605,555.294556 
	C1101.915405,553.274719 1106.010986,551.326965 1110.310791,550.089417 
	C1113.601074,549.142334 1117.192993,549.303162 1120.575195,548.604858 
	C1131.028076,546.446655 1141.396606,543.840637 1151.899170,541.980774 
	C1156.157227,541.226746 1160.677002,541.950439 1165.077637,542.001770 
	C1165.124146,551.025818 1165.170532,560.049866 1165.148315,569.538696 
	C1154.250122,571.999695 1143.400879,573.896667 1132.598999,576.032166 
	C1126.796753,577.179321 1121.124512,579.016724 1115.304199,580.028809 
	C1109.553833,581.028687 1103.691040,581.381409 1097.471924,582.032410 
	C1097.046387,574.010315 1097.026611,565.973816 1097.003418,557.468628 
z"/>
<path fill="#0E84EF" opacity="1.000000" stroke="none" 
	d="
M877.794495,520.555420 
	C862.847229,524.275452 848.060913,527.888000 833.111694,530.604004 
	C828.046021,531.524414 823.019775,531.754944 818.369568,534.968872 
	C818.008362,530.982605 818.004517,526.953552 817.998535,522.461060 
	C817.998596,515.311768 818.000793,508.626038 818.390381,501.464355 
	C825.861023,498.822723 832.888855,496.445038 840.048889,494.573090 
	C844.168701,493.495972 848.501099,493.227692 852.740295,492.612518 
	C861.057007,491.405579 869.375427,490.210632 877.693176,489.010681 
	C877.756104,494.046875 877.819031,499.083069 877.675049,504.666962 
	C877.294739,505.541687 877.385193,505.787415 877.739258,505.951843 
	C877.790039,510.666931 877.840881,515.382019 877.794495,520.555420 
M876.409485,517.483154 
	C876.409485,517.483154 876.519531,517.416321 876.409485,517.483154 
z"/>
<path fill="#138FF1" opacity="1.000000" stroke="none" 
	d="
M877.787537,488.552032 
	C869.375427,490.210632 861.057007,491.405579 852.740295,492.612518 
	C848.501099,493.227692 844.168701,493.495972 840.048889,494.573090 
	C832.888855,496.445038 825.861023,498.822723 818.390869,500.996033 
	C818.003418,491.882935 817.983643,482.762177 818.009216,473.641541 
	C818.026184,467.576935 819.480164,466.153320 825.440308,464.884918 
	C834.623352,462.930725 843.733215,460.635132 852.892822,458.567322 
	C859.729126,457.024017 866.587708,455.574646 873.462585,454.215973 
	C873.980164,454.113678 874.707703,455.073975 875.600830,455.756470 
	C876.260010,458.065216 876.656006,460.157776 877.026733,462.953400 
	C877.039001,463.853363 877.076477,464.050232 877.113953,464.247070 
	C877.194336,464.845673 877.274780,465.444305 877.217041,466.543823 
	C877.068604,467.336395 877.148560,467.600677 877.318909,467.837585 
	C877.502502,468.636353 877.686096,469.435120 877.604553,470.835632 
	C877.467896,472.270447 877.596436,473.103485 877.724976,473.936554 
	C877.777283,478.655487 877.829590,483.374420 877.787537,488.552032 
z"/>
<path fill="#7848F7" opacity="1.000000" stroke="none" 
	d="
M1098.000000,528.002441 
	C1098.192017,520.845703 1098.384033,513.689026 1098.290527,506.266571 
	C1098.004761,504.935516 1098.004639,503.870178 1098.365234,502.367249 
	C1100.838745,500.667084 1102.885254,498.452850 1105.075562,498.299866 
	C1117.241577,497.450165 1128.317139,490.576080 1140.847778,491.964142 
	C1141.797852,492.069397 1142.899780,491.927887 1143.761230,491.531555 
	C1150.559326,488.403717 1157.702026,487.496124 1165.089600,488.006042 
	C1165.146729,496.030396 1165.203735,504.054749 1164.773926,512.546509 
	C1162.123047,513.674744 1159.996704,514.530701 1157.787598,514.956543 
	C1152.950073,515.889099 1148.043945,516.470825 1143.214355,517.438477 
	C1136.115234,518.860779 1129.013062,520.315247 1121.995605,522.086487 
	C1114.007324,524.102783 1105.040405,522.177185 1098.000000,528.002441 
z"/>
<path fill="#834AF8" opacity="1.000000" stroke="none" 
	d="
M1098.000000,528.456421 
	C1105.040405,522.177185 1114.007324,524.102783 1121.995605,522.086487 
	C1129.013062,520.315247 1136.115234,518.860779 1143.214355,517.438477 
	C1148.043945,516.470825 1152.950073,515.889099 1157.787598,514.956543 
	C1159.996704,514.530701 1162.123047,513.674744 1164.691650,513.009888 
	C1165.141724,522.362061 1165.186890,531.718323 1165.154785,541.538147 
	C1160.677002,541.950439 1156.157227,541.226746 1151.899170,541.980774 
	C1141.396606,543.840637 1131.028076,546.446655 1120.575195,548.604858 
	C1117.192993,549.303162 1113.601074,549.142334 1110.310791,550.089417 
	C1106.010986,551.326965 1101.915405,553.274719 1097.373291,554.962524 
	C1097.343140,546.308960 1097.671509,537.609680 1098.000000,528.456421 
z"/>
<path fill="#6D47F6" opacity="1.000000" stroke="none" 
	d="
M1165.175049,487.543213 
	C1157.702026,487.496124 1150.559326,488.403717 1143.761230,491.531555 
	C1142.899780,491.927887 1141.797852,492.069397 1140.847778,491.964142 
	C1128.317139,490.576080 1117.241577,497.450165 1105.075562,498.299866 
	C1102.885254,498.452850 1100.838745,500.667084 1098.365356,501.967773 
	C1098.701294,496.115356 1098.854858,490.082397 1100.345581,484.400146 
	C1100.995972,481.920593 1104.045044,479.150360 1106.604126,478.285675 
	C1111.696777,476.564972 1117.235962,476.214630 1122.532837,475.038361 
	C1130.514526,473.265839 1138.422974,471.161530 1146.408081,469.406158 
	C1152.330933,468.104095 1158.326538,467.132385 1164.692871,466.009277 
	C1165.151001,473.030121 1165.205688,480.055267 1165.175049,487.543213 
z"/>
<path fill="#BD52FD" opacity="1.000000" stroke="none" 
	d="
M925.699768,754.066406 
	C925.265991,754.727478 924.495361,755.379211 923.401489,756.032593 
	C923.839783,755.375183 924.601318,754.716064 925.699768,754.066406 
z"/>
<path fill="#0876ED" opacity="1.000000" stroke="none" 
	d="
M829.286743,725.912720 
	C829.304199,725.313110 829.618469,724.854126 829.932739,724.395203 
	C830.253784,724.828125 830.574829,725.261047 830.883118,726.003540 
	C830.441345,726.226501 830.012451,726.139954 829.286743,725.912720 
z"/>
<path fill="#1CA3F3" opacity="1.000000" stroke="none" 
	d="
M877.820251,473.582977 
	C877.596436,473.103485 877.467896,472.270447 877.542236,471.246460 
	C877.801819,471.780151 877.858704,472.504791 877.820251,473.582977 
z"/>
<path fill="#1CA3F3" opacity="1.000000" stroke="none" 
	d="
M877.958862,597.614258 
	C877.720398,597.402161 877.559265,596.881592 877.586670,596.217346 
	C877.862305,596.484375 877.949280,596.895142 877.958862,597.614258 
z"/>
<path fill="#B7B7B7" opacity="1.000000" stroke="none" 
	d="
M756.656738,607.400024 
	C757.022705,607.581787 757.102539,607.890503 756.973389,608.460205 
	C756.762695,608.289673 756.631470,607.891602 756.656738,607.400024 
z"/>
<path fill="#0876ED" opacity="1.000000" stroke="none" 
	d="
M765.403564,667.373535 
	C765.616577,667.565247 765.793945,668.004395 766.001526,668.684448 
	C765.810425,668.490540 765.589172,668.055725 765.403564,667.373535 
z"/>
<path fill="#904CFA" opacity="1.000000" stroke="none" 
	d="
M1043.721191,458.137634 
	C1043.873169,458.449066 1043.842407,458.955139 1043.649902,459.659302 
	C1043.504761,459.349060 1043.521484,458.840668 1043.721191,458.137634 
z"/>
<path fill="#1CA3F3" opacity="1.000000" stroke="none" 
	d="
M877.812195,505.725769 
	C877.385193,505.787415 877.294739,505.541687 877.601929,505.131653 
	C877.735840,505.048676 877.885132,505.499695 877.812195,505.725769 
z"/>
<path fill="#1CA3F3" opacity="1.000000" stroke="none" 
	d="
M877.416016,467.633667 
	C877.148560,467.600677 877.068604,467.336395 877.117554,466.834412 
	C877.414490,466.830994 877.533508,467.099548 877.416016,467.633667 
z"/>
<path fill="#904CFA" opacity="1.000000" stroke="none" 
	d="
M1042.819336,464.123993 
	C1042.968506,464.215820 1042.970947,464.406738 1042.912109,464.877106 
	C1042.747559,464.955078 1042.620117,464.761230 1042.553101,464.548340 
	C1042.525635,464.461090 1042.628784,464.332733 1042.819336,464.123993 
z"/>
<path fill="#1CA3F3" opacity="1.000000" stroke="none" 
	d="
M877.217041,464.104797 
	C877.076477,464.050232 877.039001,463.853363 876.990417,463.356201 
	C877.092957,463.358124 877.206543,463.660309 877.217041,464.104797 
z"/>
<path fill="#B7B7B7" opacity="1.000000" stroke="none" 
	d="
M767.726318,355.650879 
	C767.743530,355.759369 767.504089,355.865936 767.392090,355.805695 
	C767.280090,355.745453 767.412781,355.488312 767.412781,355.488312 
	C767.412781,355.488312 767.709045,355.542419 767.726318,355.650879 
z"/>
<path fill="#0876ED" opacity="1.000000" stroke="none" 
	d="
M876.464478,517.449707 
	C876.519531,517.416321 876.409485,517.483154 876.464478,517.449707 
z"/>
</svg>